<svg width="42" height="42" viewBox="0 0 42 42" fill="none" xmlns="http://www.w3.org/2000/svg">
<g id="edit">
<mask id="mask0_306_191" style="mask-type:alpha" maskUnits="userSpaceOnUse" x="0" y="0" width="42" height="42">
<rect id="Bounding box" width="42" height="42" fill="#D9D9D9"/>
</mask>
<g mask="url(#mask0_306_191)">
<path id="edit_2" d="M8.75 33.25H11.2438L28.35 16.1438L25.8563 13.65L8.75 30.7563V33.25ZM5.25 36.75V29.3125L28.35 6.25625C28.7 5.93542 29.0865 5.6875 29.5094 5.5125C29.9323 5.3375 30.3771 5.25 30.8438 5.25C31.3104 5.25 31.7625 5.3375 32.2 5.5125C32.6375 5.6875 33.0167 5.95 33.3375 6.3L35.7438 8.75C36.0938 9.07083 36.349 9.45 36.5094 9.8875C36.6698 10.325 36.75 10.7625 36.75 11.2C36.75 11.6667 36.6698 12.1115 36.5094 12.5344C36.349 12.9573 36.0938 13.3438 35.7438 13.6938L12.6875 36.75H5.25ZM27.0813 14.9187L25.8563 13.65L28.35 16.1438L27.0813 14.9187Z" fill="#1C1B1F"/>
</g>
</g>
</svg>
