<svg width="42" height="42" viewBox="0 0 42 42" fill="none" xmlns="http://www.w3.org/2000/svg">
<g id="photo">
<g id="add_a_photo" opacity="0.5">
<mask id="mask0_306_2155" style="mask-type:alpha" maskUnits="userSpaceOnUse" x="0" y="0" width="42" height="42">
<rect id="Bounding box" width="42" height="42" fill="#D9D9D9"/>
</mask>
<g mask="url(#mask0_306_2155)">
<path id="add_a_photo_2" d="M5.25 36.75C4.2875 36.75 3.46354 36.4073 2.77813 35.7219C2.09271 35.0365 1.75 34.2125 1.75 33.25V12.25C1.75 11.2875 2.09271 10.4635 2.77813 9.77812C3.46354 9.09271 4.2875 8.75 5.25 8.75H10.7625L14 5.25H24.5V8.75H15.5312L12.3375 12.25H5.25V33.25H33.25V17.5H36.75V33.25C36.75 34.2125 36.4073 35.0365 35.7219 35.7219C35.0365 36.4073 34.2125 36.75 33.25 36.75H5.25ZM33.25 12.25V8.75H29.75V5.25H33.25V1.75H36.75V5.25H40.25V8.75H36.75V12.25H33.25ZM19.25 30.625C21.4375 30.625 23.2969 29.8594 24.8281 28.3281C26.3594 26.7969 27.125 24.9375 27.125 22.75C27.125 20.5625 26.3594 18.7031 24.8281 17.1719C23.2969 15.6406 21.4375 14.875 19.25 14.875C17.0625 14.875 15.2031 15.6406 13.6719 17.1719C12.1406 18.7031 11.375 20.5625 11.375 22.75C11.375 24.9375 12.1406 26.7969 13.6719 28.3281C15.2031 29.8594 17.0625 30.625 19.25 30.625ZM19.25 27.125C18.025 27.125 16.9896 26.7021 16.1438 25.8563C15.2979 25.0104 14.875 23.975 14.875 22.75C14.875 21.525 15.2979 20.4896 16.1438 19.6438C16.9896 18.7979 18.025 18.375 19.25 18.375C20.475 18.375 21.5104 18.7979 22.3563 19.6438C23.2021 20.4896 23.625 21.525 23.625 22.75C23.625 23.975 23.2021 25.0104 22.3563 25.8563C21.5104 26.7021 20.475 27.125 19.25 27.125Z" fill="#1C1B1F"/>
</g>
</g>
</g>
</svg>
